<mxfile host="Electron" agent="Mozilla/5.0 (Macintosh; Intel Mac OS X 10_15_7) AppleWebKit/537.36 (KHTML, like Gecko) draw.io/28.2.5 Chrome/138.0.7204.251 Electron/37.6.1 Safari/537.36" version="28.2.5">
  <diagram id="Rp6H8PYFjs6cryegcmvD" name="Page-1">
    <mxGraphModel dx="1155" dy="846" grid="1" gridSize="10" guides="1" tooltips="1" connect="1" arrows="1" fold="1" page="1" pageScale="1" pageWidth="2000" pageHeight="3000" math="0" shadow="0">
      <root>
        <mxCell id="0" />
        <mxCell id="1" parent="0" />
        <mxCell id="title" value="Jupiter Wheels - Event Model" style="text;html=1;strokeColor=none;fillColor=none;align=center;verticalAlign=middle;whiteSpace=wrap;rounded=0;fontSize=28;fontStyle=1;fontColor=#000000;" parent="1" vertex="1">
          <mxGeometry x="700" y="20" width="600" height="50" as="geometry" />
        </mxCell>
        <mxCell id="user_lane" value="USER" style="rounded=1;whiteSpace=wrap;html=1;fillColor=#e1d5e7;strokeColor=#9673a6;fontSize=18;fontStyle=1;verticalAlign=top;fontColor=#000000;" parent="1" vertex="1">
          <mxGeometry x="100" y="100" width="150" height="2800" as="geometry" />
        </mxCell>
        <mxCell id="rental_lane" value="RENTAL MANAGEMENT" style="rounded=1;whiteSpace=wrap;html=1;fillColor=#d5e8d4;strokeColor=#82b366;fontSize=18;fontStyle=1;verticalAlign=top;fontColor=#000000;" parent="1" vertex="1">
          <mxGeometry x="270" y="100" width="200" height="2800" as="geometry" />
        </mxCell>
        <mxCell id="payment_lane" value="PAYMENT PROCESSING" style="rounded=1;whiteSpace=wrap;html=1;fillColor=#dae8fc;strokeColor=#6c8ebf;fontSize=18;fontStyle=1;verticalAlign=top;fontColor=#000000;" parent="1" vertex="1">
          <mxGeometry x="490" y="100" width="200" height="2800" as="geometry" />
        </mxCell>
        <mxCell id="fleet_lane" value="FLEET OPERATIONS" style="rounded=1;whiteSpace=wrap;html=1;fillColor=#fff2cc;strokeColor=#d6b656;fontSize=18;fontStyle=1;verticalAlign=top;fontColor=#000000;" parent="1" vertex="1">
          <mxGeometry x="710" y="100" width="200" height="2800" as="geometry" />
        </mxCell>
        <mxCell id="usage_lane" value="USAGE MANAGEMENT" style="rounded=1;whiteSpace=wrap;html=1;fillColor=#ffe6cc;strokeColor=#d79b00;fontSize=18;fontStyle=1;verticalAlign=top;fontColor=#000000;" parent="1" vertex="1">
          <mxGeometry x="930" y="100" width="200" height="2800" as="geometry" />
        </mxCell>
        <mxCell id="return_lane" value="RETURN MANAGEMENT" style="rounded=1;whiteSpace=wrap;html=1;fillColor=#f8cecc;strokeColor=#b85450;fontSize=18;fontStyle=1;verticalAlign=top;fontColor=#000000;" parent="1" vertex="1">
          <mxGeometry x="1150" y="100" width="200" height="2800" as="geometry" />
        </mxCell>
        <mxCell id="external_lane" value="EXTERNAL SYSTEMS" style="rounded=1;whiteSpace=wrap;html=1;fillColor=#f5f5f5;strokeColor=#666666;fontSize=18;fontStyle=1;verticalAlign=top;fontColor=#000000;" parent="1" vertex="1">
          <mxGeometry x="1370" y="100" width="200" height="2800" as="geometry" />
        </mxCell>
        <mxCell id="views_lane" value="READ MODELS" style="rounded=1;whiteSpace=wrap;html=1;fillColor=#e6e6e6;strokeColor=#333333;fontSize=18;fontStyle=1;verticalAlign=top;fontColor=#000000;" parent="1" vertex="1">
          <mxGeometry x="1590" y="100" width="200" height="2800" as="geometry" />
        </mxCell>
        <mxCell id="cmd1" value="CreateNewBike" style="rounded=1;whiteSpace=wrap;html=1;fillColor=#e1d5e7;strokeColor=#9673a6;fontSize=12;fontStyle=1;fontColor=#000000;" parent="1" vertex="1">
          <mxGeometry x="120" y="160" width="110" height="40" as="geometry" />
        </mxCell>
        <mxCell id="event1" value="BikeCreated" style="rounded=1;whiteSpace=wrap;html=1;fillColor=#fff2cc;strokeColor=#d6b656;fontSize=12;fontColor=#000000;" parent="1" vertex="1">
          <mxGeometry x="730" y="160" width="160" height="40" as="geometry" />
        </mxCell>
        <mxCell id="event1b" value="BikeMarkedAsAvailable" style="rounded=1;whiteSpace=wrap;html=1;fillColor=#fff2cc;strokeColor=#d6b656;fontSize=12;fontColor=#000000;" parent="1" vertex="1">
          <mxGeometry x="730" y="220" width="160" height="40" as="geometry" />
        </mxCell>
        <mxCell id="view1" value="Update BikeEntity" style="rounded=1;whiteSpace=wrap;html=1;fillColor=#e6e6e6;strokeColor=#333333;fontSize=12;fontColor=#000000;" parent="1" vertex="1">
          <mxGeometry x="1610" y="160" width="160" height="40" as="geometry" />
        </mxCell>
        <mxCell id="cmd2" value="RequestBikeRental" style="rounded=1;whiteSpace=wrap;html=1;fillColor=#e1d5e7;strokeColor=#9673a6;fontSize=12;fontStyle=1;fontColor=#000000;" parent="1" vertex="1">
          <mxGeometry x="120" y="300" width="110" height="40" as="geometry" />
        </mxCell>
        <mxCell id="event2" value="BikeRentalRequested" style="rounded=1;whiteSpace=wrap;html=1;fillColor=#d5e8d4;strokeColor=#82b366;fontSize=12;fontColor=#000000;" parent="1" vertex="1">
          <mxGeometry x="280" y="300" width="180" height="40" as="geometry" />
        </mxCell>
        <mxCell id="view2" value="Update Bike Status" style="rounded=1;whiteSpace=wrap;html=1;fillColor=#e6e6e6;strokeColor=#333333;fontSize=12;fontColor=#000000;" parent="1" vertex="1">
          <mxGeometry x="1610" y="300" width="160" height="40" as="geometry" />
        </mxCell>
        <mxCell id="event3" value="PaymentPrepared" style="rounded=1;whiteSpace=wrap;html=1;fillColor=#dae8fc;strokeColor=#6c8ebf;fontSize=12;fontColor=#000000;" parent="1" vertex="1">
          <mxGeometry x="510" y="380" width="160" height="40" as="geometry" />
        </mxCell>
        <mxCell id="cmd3" value="ConfirmPaymentSuccess" style="rounded=1;whiteSpace=wrap;html=1;fillColor=#e1d5e7;strokeColor=#9673a6;fontSize=12;fontStyle=1;fontColor=#000000;" parent="1" vertex="1">
          <mxGeometry x="120" y="460" width="110" height="40" as="geometry" />
        </mxCell>
        <mxCell id="event4" value="PaymentCompleted" style="rounded=1;whiteSpace=wrap;html=1;fillColor=#dae8fc;strokeColor=#6c8ebf;fontSize=12;fontColor=#000000;" parent="1" vertex="1">
          <mxGeometry x="510" y="460" width="160" height="40" as="geometry" />
        </mxCell>
        <mxCell id="event5" value="BikeMarkedAsInUse" style="rounded=1;whiteSpace=wrap;html=1;fillColor=#ffe6cc;strokeColor=#d79b00;fontSize=12;fontColor=#000000;" parent="1" vertex="1">
          <mxGeometry x="940" y="540" width="180" height="40" as="geometry" />
        </mxCell>
        <mxCell id="external1" value="Bluetooth Unlock" style="rounded=1;whiteSpace=wrap;html=1;fillColor=#f5f5f5;strokeColor=#666666;fontSize=12;fontColor=#000000;" parent="1" vertex="1">
          <mxGeometry x="1390" y="460" width="160" height="40" as="geometry" />
        </mxCell>
        <mxCell id="external2" value="Monitoring System" style="rounded=1;whiteSpace=wrap;html=1;fillColor=#f5f5f5;strokeColor=#666666;fontSize=12;fontColor=#000000;" parent="1" vertex="1">
          <mxGeometry x="1390" y="540" width="160" height="40" as="geometry" />
        </mxCell>
        <mxCell id="cmd4" value="PauseRental" style="rounded=1;whiteSpace=wrap;html=1;fillColor=#e1d5e7;strokeColor=#9673a6;fontSize=12;fontStyle=1;fontColor=#000000;" parent="1" vertex="1">
          <mxGeometry x="120" y="620" width="110" height="40" as="geometry" />
        </mxCell>
        <mxCell id="event6" value="RentalPaused" style="rounded=1;whiteSpace=wrap;html=1;fillColor=#ffe6cc;strokeColor=#d79b00;fontSize=12;fontColor=#000000;" parent="1" vertex="1">
          <mxGeometry x="940" y="620" width="180" height="40" as="geometry" />
        </mxCell>
        <mxCell id="cmd5" value="ResumeRental" style="rounded=1;whiteSpace=wrap;html=1;fillColor=#e1d5e7;strokeColor=#9673a6;fontSize=12;fontStyle=1;fontColor=#000000;" parent="1" vertex="1">
          <mxGeometry x="120" y="700" width="110" height="40" as="geometry" />
        </mxCell>
        <mxCell id="event7" value="RentalResumed" style="rounded=1;whiteSpace=wrap;html=1;fillColor=#ffe6cc;strokeColor=#d79b00;fontSize=12;fontColor=#000000;" parent="1" vertex="1">
          <mxGeometry x="940" y="700" width="180" height="40" as="geometry" />
        </mxCell>
        <mxCell id="event8" value="BikeReplacementRequested" style="rounded=1;whiteSpace=wrap;html=1;fillColor=#f8cecc;strokeColor=#b85450;fontSize=12;fontColor=#000000;" parent="1" vertex="1">
          <mxGeometry x="1160" y="780" width="180" height="40" as="geometry" />
        </mxCell>
        <mxCell id="external3" value="Find Replacement" style="rounded=1;whiteSpace=wrap;html=1;fillColor=#f5f5f5;strokeColor=#666666;fontSize=12;fontColor=#000000;" parent="1" vertex="1">
          <mxGeometry x="1390" y="780" width="160" height="40" as="geometry" />
        </mxCell>
        <mxCell id="cmd6" value="AssignReplacementBike" style="rounded=1;whiteSpace=wrap;html=1;fillColor=#e1d5e7;strokeColor=#9673a6;fontSize=12;fontStyle=1;fontColor=#000000;" parent="1" vertex="1">
          <mxGeometry x="120" y="860" width="110" height="40" as="geometry" />
        </mxCell>
        <mxCell id="event9" value="ReplacementBikeAssigned" style="rounded=1;whiteSpace=wrap;html=1;fillColor=#f8cecc;strokeColor=#b85450;fontSize=12;fontColor=#000000;" parent="1" vertex="1">
          <mxGeometry x="1160" y="860" width="180" height="40" as="geometry" />
        </mxCell>
        <mxCell id="cmd7" value="ReturnBikeAtLocation" style="rounded=1;whiteSpace=wrap;html=1;fillColor=#e1d5e7;strokeColor=#9673a6;fontSize=12;fontStyle=1;fontColor=#000000;" parent="1" vertex="1">
          <mxGeometry x="120" y="940" width="110" height="40" as="geometry" />
        </mxCell>
        <mxCell id="event10" value="BikeReturned" style="rounded=1;whiteSpace=wrap;html=1;fillColor=#f8cecc;strokeColor=#b85450;fontSize=12;fontColor=#000000;" parent="1" vertex="1">
          <mxGeometry x="1160" y="940" width="180" height="40" as="geometry" />
        </mxCell>
        <mxCell id="cmd8" value="SubmitBikePhoto" style="rounded=1;whiteSpace=wrap;html=1;fillColor=#e1d5e7;strokeColor=#9673a6;fontSize=12;fontStyle=1;fontColor=#000000;" parent="1" vertex="1">
          <mxGeometry x="120" y="1020" width="110" height="40" as="geometry" />
        </mxCell>
        <mxCell id="event11" value="BikePhotoSubmitted" style="rounded=1;whiteSpace=wrap;html=1;fillColor=#f8cecc;strokeColor=#b85450;fontSize=12;fontColor=#000000;" parent="1" vertex="1">
          <mxGeometry x="1160" y="1020" width="180" height="40" as="geometry" />
        </mxCell>
        <mxCell id="external4" value="Photo Analysis" style="rounded=1;whiteSpace=wrap;html=1;fillColor=#f5f5f5;strokeColor=#666666;fontSize=12;fontColor=#000000;" parent="1" vertex="1">
          <mxGeometry x="1390" y="1020" width="160" height="40" as="geometry" />
        </mxCell>
        <mxCell id="cmd9" value="ApproveOrRejectPhoto" style="rounded=1;whiteSpace=wrap;html=1;fillColor=#e1d5e7;strokeColor=#9673a6;fontSize=12;fontStyle=1;fontColor=#000000;" parent="1" vertex="1">
          <mxGeometry x="120" y="1100" width="110" height="40" as="geometry" />
        </mxCell>
        <mxCell id="event12" value="PhotoFlaggedForReview" style="rounded=1;whiteSpace=wrap;html=1;fillColor=#f8cecc;strokeColor=#b85450;fontSize=12;fontColor=#000000;" parent="1" vertex="1">
          <mxGeometry x="1160" y="1100" width="180" height="40" as="geometry" />
        </mxCell>
        <mxCell id="cmd10" value="SubmitReturnSurvey" style="rounded=1;whiteSpace=wrap;html=1;fillColor=#e1d5e7;strokeColor=#9673a6;fontSize=12;fontStyle=1;fontColor=#000000;" parent="1" vertex="1">
          <mxGeometry x="120" y="1180" width="110" height="40" as="geometry" />
        </mxCell>
        <mxCell id="event13" value="ReturnSurveySubmitted" style="rounded=1;whiteSpace=wrap;html=1;fillColor=#f8cecc;strokeColor=#b85450;fontSize=12;fontColor=#000000;" parent="1" vertex="1">
          <mxGeometry x="1160" y="1180" width="180" height="40" as="geometry" />
        </mxCell>
        <mxCell id="cmd11" value="ReportInspectionResults" style="rounded=1;whiteSpace=wrap;html=1;fillColor=#e1d5e7;strokeColor=#9673a6;fontSize=12;fontStyle=1;fontColor=#000000;" parent="1" vertex="1">
          <mxGeometry x="120" y="1260" width="110" height="40" as="geometry" />
        </mxCell>
        <mxCell id="event14" value="BikeInspectionCompleted" style="rounded=1;whiteSpace=wrap;html=1;fillColor=#f8cecc;strokeColor=#b85450;fontSize=12;fontColor=#000000;" parent="1" vertex="1">
          <mxGeometry x="1160" y="1260" width="180" height="40" as="geometry" />
        </mxCell>
        <mxCell id="external5" value="Inspection System" style="rounded=1;whiteSpace=wrap;html=1;fillColor=#f5f5f5;strokeColor=#666666;fontSize=12;fontColor=#000000;" parent="1" vertex="1">
          <mxGeometry x="1390" y="1260" width="160" height="40" as="geometry" />
        </mxCell>
        <mxCell id="event15" value="BikeMarkedAsAvailable" style="rounded=1;whiteSpace=wrap;html=1;fillColor=#fff2cc;strokeColor=#d6b656;fontSize=12;fontColor=#000000;" parent="1" vertex="1">
          <mxGeometry x="730" y="1340" width="160" height="40" as="geometry" />
        </mxCell>
        <mxCell id="view3" value="Update Fleet Status" style="rounded=1;whiteSpace=wrap;html=1;fillColor=#e6e6e6;strokeColor=#333333;fontSize=12;fontColor=#000000;" parent="1" vertex="1">
          <mxGeometry x="1610" y="1340" width="160" height="40" as="geometry" />
        </mxCell>
        <mxCell id="queries_title" value="QUERIES (Read Operations)" style="text;html=1;strokeColor=none;fillColor=none;align=center;verticalAlign=middle;whiteSpace=wrap;rounded=0;fontSize=16;fontStyle=1;fontColor=#000000;" parent="1" vertex="1">
          <mxGeometry x="1590" y="1440" width="200" height="30" as="geometry" />
        </mxCell>
        <mxCell id="query1" value="AllBikesInFleet" style="rounded=1;whiteSpace=wrap;html=1;fillColor=#e6e6e6;strokeColor=#333333;fontSize=12;fontColor=#000000;" parent="1" vertex="1">
          <mxGeometry x="1610" y="1480" width="160" height="30" as="geometry" />
        </mxCell>
        <mxCell id="query2" value="AvailableBikes" style="rounded=1;whiteSpace=wrap;html=1;fillColor=#e6e6e6;strokeColor=#333333;fontSize=12;fontColor=#000000;" parent="1" vertex="1">
          <mxGeometry x="1610" y="1520" width="160" height="30" as="geometry" />
        </mxCell>
        <mxCell id="query3" value="BikeDetails" style="rounded=1;whiteSpace=wrap;html=1;fillColor=#e6e6e6;strokeColor=#333333;fontSize=12;fontColor=#000000;" parent="1" vertex="1">
          <mxGeometry x="1610" y="1560" width="160" height="30" as="geometry" />
        </mxCell>
        <mxCell id="query4" value="BikeMaintenanceDetails" style="rounded=1;whiteSpace=wrap;html=1;fillColor=#e6e6e6;strokeColor=#333333;fontSize=12;fontColor=#000000;" parent="1" vertex="1">
          <mxGeometry x="1610" y="1600" width="160" height="30" as="geometry" />
        </mxCell>
        <mxCell id="query5" value="PaymentRetryOptions" style="rounded=1;whiteSpace=wrap;html=1;fillColor=#e6e6e6;strokeColor=#333333;fontSize=12;fontColor=#000000;" parent="1" vertex="1">
          <mxGeometry x="1610" y="1640" width="160" height="30" as="geometry" />
        </mxCell>
        <mxCell id="failures_title" value="FAILURE SCENARIOS" style="text;html=1;strokeColor=none;fillColor=none;align=center;verticalAlign=middle;whiteSpace=wrap;rounded=0;fontSize=16;fontStyle=1;fontColor=#000000;" parent="1" vertex="1">
          <mxGeometry x="100" y="1720" width="1700" height="30" as="geometry" />
        </mxCell>
        <mxCell id="deadline1" value="PaymentTimeout" style="rounded=1;whiteSpace=wrap;html=1;fillColor=#ffcccc;strokeColor=#ff6666;fontSize=12;fontStyle=1;fontColor=#000000;" parent="1" vertex="1">
          <mxGeometry x="280" y="1760" width="180" height="40" as="geometry" />
        </mxCell>
        <mxCell id="event16" value="RentalRequestRejectedTimeout" style="rounded=1;whiteSpace=wrap;html=1;fillColor=#ffcccc;strokeColor=#ff6666;fontSize=12;fontColor=#000000;" parent="1" vertex="1">
          <mxGeometry x="280" y="1820" width="180" height="40" as="geometry" />
        </mxCell>
        <mxCell id="cmd12" value="ReportPaymentFailure" style="rounded=1;whiteSpace=wrap;html=1;fillColor=#e1d5e7;strokeColor=#9673a6;fontSize=12;fontStyle=1;fontColor=#000000;" parent="1" vertex="1">
          <mxGeometry x="120" y="1900" width="110" height="40" as="geometry" />
        </mxCell>
        <mxCell id="event17" value="PaymentFailed" style="rounded=1;whiteSpace=wrap;html=1;fillColor=#ffcccc;strokeColor=#ff6666;fontSize=12;fontColor=#000000;" parent="1" vertex="1">
          <mxGeometry x="510" y="1900" width="160" height="40" as="geometry" />
        </mxCell>
        <mxCell id="cmd13" value="RetryPayment" style="rounded=1;whiteSpace=wrap;html=1;fillColor=#e1d5e7;strokeColor=#9673a6;fontSize=12;fontStyle=1;fontColor=#000000;" parent="1" vertex="1">
          <mxGeometry x="120" y="1980" width="110" height="40" as="geometry" />
        </mxCell>
        <mxCell id="cmd14" value="EndRentalEarlyDueToProblem" style="rounded=1;whiteSpace=wrap;html=1;fillColor=#e1d5e7;strokeColor=#9673a6;fontSize=12;fontStyle=1;fontColor=#000000;" parent="1" vertex="1">
          <mxGeometry x="120" y="2060" width="110" height="40" as="geometry" />
        </mxCell>
        <mxCell id="event18" value="RentalEndedEarly" style="rounded=1;whiteSpace=wrap;html=1;fillColor=#ffcccc;strokeColor=#ff6666;fontSize=12;fontColor=#000000;" parent="1" vertex="1">
          <mxGeometry x="940" y="2060" width="180" height="40" as="geometry" />
        </mxCell>
        <mxCell id="deadline2" value="RentalPauseTimeout" style="rounded=1;whiteSpace=wrap;html=1;fillColor=#ffcccc;strokeColor=#ff6666;fontSize=12;fontStyle=1;fontColor=#000000;" parent="1" vertex="1">
          <mxGeometry x="940" y="2140" width="180" height="40" as="geometry" />
        </mxCell>
        <mxCell id="event19" value="ExtraFeesChargedExtendedPause" style="rounded=1;whiteSpace=wrap;html=1;fillColor=#ffcccc;strokeColor=#ff6666;fontSize=12;fontColor=#000000;" parent="1" vertex="1">
          <mxGeometry x="940" y="2200" width="180" height="40" as="geometry" />
        </mxCell>
        <mxCell id="account_title" value="USER ACCOUNT MANAGEMENT" style="text;html=1;strokeColor=none;fillColor=none;align=center;verticalAlign=middle;whiteSpace=wrap;rounded=0;fontSize=16;fontStyle=1;fontColor=#000000;" parent="1" vertex="1">
          <mxGeometry x="100" y="2300" width="1700" height="30" as="geometry" />
        </mxCell>
        <mxCell id="cmd15" value="RegisterAccount" style="rounded=1;whiteSpace=wrap;html=1;fillColor=#e1d5e7;strokeColor=#9673a6;fontSize=12;fontStyle=1;fontColor=#000000;" parent="1" vertex="1">
          <mxGeometry x="120" y="2340" width="110" height="40" as="geometry" />
        </mxCell>
        <mxCell id="event20" value="UserAccountCreated" style="rounded=1;whiteSpace=wrap;html=1;fillColor=#d5e8d4;strokeColor=#82b366;fontSize=12;fontColor=#000000;" parent="1" vertex="1">
          <mxGeometry x="280" y="2340" width="180" height="40" as="geometry" />
        </mxCell>
        <mxCell id="external6" value="Email System" style="rounded=1;whiteSpace=wrap;html=1;fillColor=#f5f5f5;strokeColor=#666666;fontSize=12;fontColor=#000000;" parent="1" vertex="1">
          <mxGeometry x="1390" y="2340" width="160" height="40" as="geometry" />
        </mxCell>
        <mxCell id="cmd16" value="VerifyEmail" style="rounded=1;whiteSpace=wrap;html=1;fillColor=#e1d5e7;strokeColor=#9673a6;fontSize=12;fontStyle=1;fontColor=#000000;" parent="1" vertex="1">
          <mxGeometry x="120" y="2420" width="110" height="40" as="geometry" />
        </mxCell>
        <mxCell id="event21" value="EmailVerified" style="rounded=1;whiteSpace=wrap;html=1;fillColor=#d5e8d4;strokeColor=#82b366;fontSize=12;fontColor=#000000;" parent="1" vertex="1">
          <mxGeometry x="280" y="2420" width="180" height="40" as="geometry" />
        </mxCell>
        <mxCell id="cmd17" value="ContactEmergencySupport" style="rounded=1;whiteSpace=wrap;html=1;fillColor=#e1d5e7;strokeColor=#9673a6;fontSize=12;fontStyle=1;fontColor=#000000;" parent="1" vertex="1">
          <mxGeometry x="120" y="2500" width="110" height="40" as="geometry" />
        </mxCell>
        <mxCell id="event22" value="EmergencySupportContacted" style="rounded=1;whiteSpace=wrap;html=1;fillColor=#d5e8d4;strokeColor=#82b366;fontSize=12;fontColor=#000000;" parent="1" vertex="1">
          <mxGeometry x="280" y="2500" width="180" height="40" as="geometry" />
        </mxCell>
        <mxCell id="flow1" value="" style="endArrow=classic;html=1;rounded=0;strokeColor=#d6b656;strokeWidth=2;fontColor=#000000;" parent="1" source="cmd1" target="event1" edge="1">
          <mxGeometry width="50" height="50" relative="1" as="geometry">
            <mxPoint x="240" y="180" as="sourcePoint" />
            <mxPoint x="720" y="180" as="targetPoint" />
          </mxGeometry>
        </mxCell>
        <mxCell id="flow2" value="" style="endArrow=classic;html=1;rounded=0;strokeColor=#d6b656;strokeWidth=2;fontColor=#000000;" parent="1" source="event1" target="event1b" edge="1">
          <mxGeometry width="50" height="50" relative="1" as="geometry">
            <mxPoint x="810" y="200" as="sourcePoint" />
            <mxPoint x="810" y="220" as="targetPoint" />
          </mxGeometry>
        </mxCell>
        <mxCell id="flow3" value="" style="endArrow=classic;html=1;rounded=0;strokeColor=#333333;strokeWidth=2;fontColor=#000000;" parent="1" source="event1" target="view1" edge="1">
          <mxGeometry width="50" height="50" relative="1" as="geometry">
            <mxPoint x="900" y="180" as="sourcePoint" />
            <mxPoint x="1600" y="180" as="targetPoint" />
          </mxGeometry>
        </mxCell>
        <mxCell id="flow4" value="" style="endArrow=classic;html=1;rounded=0;strokeColor=#82b366;strokeWidth=2;fontColor=#000000;" parent="1" source="cmd2" target="event2" edge="1">
          <mxGeometry width="50" height="50" relative="1" as="geometry">
            <mxPoint x="240" y="320" as="sourcePoint" />
            <mxPoint x="270" y="320" as="targetPoint" />
          </mxGeometry>
        </mxCell>
        <mxCell id="flow5" value="" style="endArrow=classic;html=1;rounded=0;strokeColor=#6c8ebf;strokeWidth=2;fontColor=#000000;" parent="1" source="event2" target="event3" edge="1">
          <mxGeometry width="50" height="50" relative="1" as="geometry">
            <mxPoint x="460" y="320" as="sourcePoint" />
            <mxPoint x="590" y="380" as="targetPoint" />
            <Array as="points">
              <mxPoint x="590" y="320" />
              <mxPoint x="590" y="380" />
            </Array>
          </mxGeometry>
        </mxCell>
        <mxCell id="flow6" value="" style="endArrow=classic;html=1;rounded=0;strokeColor=#6c8ebf;strokeWidth=2;fontColor=#000000;" parent="1" source="cmd3" target="event4" edge="1">
          <mxGeometry width="50" height="50" relative="1" as="geometry">
            <mxPoint x="240" y="480" as="sourcePoint" />
            <mxPoint x="500" y="480" as="targetPoint" />
          </mxGeometry>
        </mxCell>
        <mxCell id="flow7" value="" style="endArrow=classic;html=1;rounded=0;strokeColor=#666666;strokeWidth=2;fontColor=#000000;" parent="1" source="event4" target="external1" edge="1">
          <mxGeometry width="50" height="50" relative="1" as="geometry">
            <mxPoint x="680" y="480" as="sourcePoint" />
            <mxPoint x="1380" y="480" as="targetPoint" />
          </mxGeometry>
        </mxCell>
        <mxCell id="flow8" value="" style="endArrow=classic;html=1;rounded=0;strokeColor=#d79b00;strokeWidth=2;fontColor=#000000;" parent="1" source="external1" target="event5" edge="1">
          <mxGeometry width="50" height="50" relative="1" as="geometry">
            <mxPoint x="1390" y="500" as="sourcePoint" />
            <mxPoint x="1120" y="540" as="targetPoint" />
            <Array as="points">
              <mxPoint x="1300" y="500" />
              <mxPoint x="1300" y="560" />
            </Array>
          </mxGeometry>
        </mxCell>
        <mxCell id="flow9" value="" style="endArrow=classic;html=1;rounded=0;strokeColor=#666666;strokeWidth=2;fontColor=#000000;" parent="1" source="event5" target="external2" edge="1">
          <mxGeometry width="50" height="50" relative="1" as="geometry">
            <mxPoint x="1120" y="560" as="sourcePoint" />
            <mxPoint x="1380" y="560" as="targetPoint" />
          </mxGeometry>
        </mxCell>
        <mxCell id="flow10" value="" style="endArrow=classic;html=1;rounded=0;strokeColor=#d79b00;strokeWidth=2;fontColor=#000000;" parent="1" source="cmd4" target="event6" edge="1">
          <mxGeometry width="50" height="50" relative="1" as="geometry">
            <mxPoint x="240" y="640" as="sourcePoint" />
            <mxPoint x="930" y="640" as="targetPoint" />
          </mxGeometry>
        </mxCell>
        <mxCell id="flow11" value="" style="endArrow=classic;html=1;rounded=0;strokeColor=#d79b00;strokeWidth=2;fontColor=#000000;" parent="1" source="cmd5" target="event7" edge="1">
          <mxGeometry width="50" height="50" relative="1" as="geometry">
            <mxPoint x="240" y="720" as="sourcePoint" />
            <mxPoint x="930" y="720" as="targetPoint" />
          </mxGeometry>
        </mxCell>
        <mxCell id="flow12" value="" style="endArrow=classic;html=1;rounded=0;strokeColor=#b85450;strokeWidth=2;fontColor=#000000;" parent="1" source="cmd7" target="event10" edge="1">
          <mxGeometry width="50" height="50" relative="1" as="geometry">
            <mxPoint x="240" y="960" as="sourcePoint" />
            <mxPoint x="1150" y="960" as="targetPoint" />
          </mxGeometry>
        </mxCell>
        <mxCell id="flow13" value="" style="endArrow=classic;html=1;rounded=0;strokeColor=#b85450;strokeWidth=2;fontColor=#000000;" parent="1" source="cmd8" target="event11" edge="1">
          <mxGeometry width="50" height="50" relative="1" as="geometry">
            <mxPoint x="240" y="1040" as="sourcePoint" />
            <mxPoint x="1150" y="1040" as="targetPoint" />
          </mxGeometry>
        </mxCell>
        <mxCell id="flow14" value="" style="endArrow=classic;html=1;rounded=0;strokeColor=#666666;strokeWidth=2;fontColor=#000000;" parent="1" source="event11" target="external4" edge="1">
          <mxGeometry width="50" height="50" relative="1" as="geometry">
            <mxPoint x="1340" y="1040" as="sourcePoint" />
            <mxPoint x="1380" y="1040" as="targetPoint" />
          </mxGeometry>
        </mxCell>
        <mxCell id="legend_title" value="EVENT MODELING LEGEND" style="rounded=1;whiteSpace=wrap;html=1;fillColor=#f5f5f5;strokeColor=#666666;fontSize=16;fontStyle=1;fontColor=#000000;" parent="1" vertex="1">
          <mxGeometry x="100" y="2600" width="300" height="40" as="geometry" />
        </mxCell>
        <mxCell id="legend_cmd" value="Commands (User Intent)" style="rounded=1;whiteSpace=wrap;html=1;fillColor=#e1d5e7;strokeColor=#9673a6;fontSize=12;fontColor=#000000;" parent="1" vertex="1">
          <mxGeometry x="100" y="2650" width="140" height="30" as="geometry" />
        </mxCell>
        <mxCell id="legend_event" value="Events (Facts)" style="rounded=1;whiteSpace=wrap;html=1;fillColor=#d5e8d4;strokeColor=#82b366;fontSize=12;fontColor=#000000;" parent="1" vertex="1">
          <mxGeometry x="260" y="2650" width="140" height="30" as="geometry" />
        </mxCell>
        <mxCell id="legend_query" value="Queries (Views)" style="rounded=1;whiteSpace=wrap;html=1;fillColor=#e6e6e6;strokeColor=#333333;fontSize=12;fontColor=#000000;" parent="1" vertex="1">
          <mxGeometry x="420" y="2650" width="140" height="30" as="geometry" />
        </mxCell>
        <mxCell id="legend_external" value="External Systems" style="rounded=1;whiteSpace=wrap;html=1;fillColor=#f5f5f5;strokeColor=#666666;fontSize=12;fontColor=#000000;" parent="1" vertex="1">
          <mxGeometry x="100" y="2690" width="140" height="30" as="geometry" />
        </mxCell>
        <mxCell id="legend_deadline" value="Deadlines/Timeouts" style="rounded=1;whiteSpace=wrap;html=1;fillColor=#ffcccc;strokeColor=#ff6666;fontSize=12;fontColor=#000000;" parent="1" vertex="1">
          <mxGeometry x="260" y="2690" width="140" height="30" as="geometry" />
        </mxCell>
        <mxCell id="legend_failure" value="Failure Events" style="rounded=1;whiteSpace=wrap;html=1;fillColor=#ffcccc;strokeColor=#ff6666;fontSize=12;fontColor=#000000;" parent="1" vertex="1">
          <mxGeometry x="420" y="2690" width="140" height="30" as="geometry" />
        </mxCell>
        <mxCell id="time_arrow" value="TIME FLOW" style="endArrow=classic;html=1;rounded=0;strokeColor=#000000;strokeWidth=4;fontColor=#000000;" parent="1" edge="1">
          <mxGeometry width="50" height="50" relative="1" as="geometry">
            <mxPoint x="50" y="160" as="sourcePoint" />
            <mxPoint x="50" y="2580" as="targetPoint" />
          </mxGeometry>
        </mxCell>
      </root>
    </mxGraphModel>
  </diagram>
</mxfile>
